# AST/ASF file generated using VICON BodyLanguage
# -----------------------------------------------
:version 1.10
:name VICON
:units
  mass 1.0
  length 0.45
  angle deg
:documentation
   .ast/.asf automatically generated from VICON data using
   VICON BodyBuilder and BodyLanguage model FoxedUp or BRILLIANT.MOD
:root
   order TX TY TZ RX RY RZ
   axis XYZ
   position 0 0 0  
   orientation 0 0 0 
:bonedata
  begin
     id 1 
     name lhipjoint
     direction 0.440178 -0.822639 0.359871 
     length 2.53113 
     axis 0 0 0  XYZ
  end
  begin
     id 2 
     name lfemur
     direction 0.34202 -0.939693 0  
     length 7.88132  
     axis 0 0 20  XYZ
    dof rx ry rz
    limits (-160.0 20.0)
           (-70.0 70.0)
           (-60.0 70.0)
  end
  begin
     id 3 
     name ltibia
     direction 0.34202 -0.939693 0   
     length 8.43783   
     axis 0 0 20   XYZ
    dof rx
    limits (-10.0 170.0)
  end
  begin
     id 4 
     name lfoot
     direction 0.0886351 -0.243523 0.965837   
     length 2.63414   
     axis -90 7.62852e-016 20   XYZ
    dof rx rz
    limits (-45.0 90.0)
           (-70.0 20.0)
  end
  begin
     id 5 
     name ltoes
     direction 1.53703e-011 -4.21717e-011 1   
     length 1.31427   
     axis -90 7.62852e-016 20   XYZ
    dof rx
    limits (-90.0 20.0)
  end
  begin
     id 6 
     name rhipjoint
     direction -0.399779 -0.839773 0.367367   
     length 2.47948  
     axis 0 0 0  XYZ 
  end
  begin
     id 7 
     name rfemur
     direction -0.34202 -0.939693 0   
     length 7.74806   
     axis 0 0 -20   XYZ
    dof rx ry rz
    limits (-160.0 20.0)
           (-70.0 70.0)
           (-70.0 60.0)
  end
  begin
     id 8 
     name rtibia
     direction -0.34202 -0.939693 0   
     length 8.74432   
     axis 0 0 -20   XYZ
    dof rx
    limits (-10.0 170.0)
 end
 begin
     id 9 
     name rfoot
     direction -0.108514 -0.298139 0.948334   
     length 2.66102  
     axis -90 -7.62852e-016 -20   XYZ
    dof rx rz
    limits (-45.0 90.0)
           (-20.0 70.0)
  end
  begin
     id 10 
     name rtoes
     direction -1.53392e-011 -4.22077e-011 1   
     length 1.31983   
     axis -90 -7.62852e-016 -20   XYZ
    dof rx
    limits (-90.0 20.0)
  end
  begin
     id 11 
     name lowerback
     direction 0.0113257 0.999866 0.0118602   
     length 2.58694   
     axis 0 0 0   XYZ
    dof rx ry rz
    limits (-20.0 45.0)
           (-30.0 30.0)
           (-30.0 30.0)
  end
  begin
     id 12 
     name upperback
     direction -0.0164747 0.995193 -0.0965375   
     length 2.52368   
     axis 0 0 0   XYZ
    dof rx ry rz
    limits (-20.0 45.0)
           (-30.0 30.0)
           (-30.0 30.0)
  end
  begin
     id 13 
     name thorax
     direction -0.0194301 0.99433 -0.104552   
     length 2.56099   
     axis 0 0 0   XYZ
    dof rx ry rz
    limits (-20.0 45.0)
           (-30.0 30.0)
           (-30.0 30.0)
  end
  begin
     id 14 
     name lowerneck
     direction 0.0148543 0.995587 -0.092657   
     length 1.71582   
     axis 0 0 0   XYZ
    dof rx ry rz
    limits (-20.0 45.0)
           (-30.0 30.0)
           (-30.0 30.0)
  end
  begin
     id 15 
     name upperneck
     direction -0.0135467 0.993656 -0.111639   
     length 1.68937   
     axis 0 0 0   XYZ
    dof rx ry rz
    limits (-20.0 45.0)
           (-30.0 30.0)
           (-30.0 30.0)
  end
  begin
     id 16
     name head
     direction -0.00615349 0.999547 -0.029448  
     length 1.7462  
     axis 0 0 0   XYZ
    dof rx ry rz
    limits (-20.0 45.0)
           (-30.0 30.0)
           (-30.0 30.0)
  end
  begin
     id 17 
     name lclavicle
     direction 0.988267 0.149885 0.0293713  
     length 4.47222  
     axis 0 0 0   XYZ
    dof ry rz
    limits (-20.0 10.0)
           (0.0 20.0)
  end
  begin
     id 18 
     name lhumerus
     direction 1 -4.48986e-011 -1.14833e-027   
     length 5.37148   
     axis 180 -30 -90   XYZ
    dof rx ry rz
    limits (-60.0 90.0)
           (-90.0 90.0)
           (-90.0 90.0)
  end
  begin
     id 19
     name lradius
     direction 0.999998 0.00170963 -0.000987055   
     length 3.94212   
     axis 180 -30 -90   XYZ
    dof rx
    limits (-10.0 170.0)
  end
  begin
     id 20
     name lwrist
     direction 0.999998 7.53149e-005 -0.00194706   
     length 1.97106   
     axis 4.65056e-015 90 90   XYZ
    dof ry
    limits (-180.0 0.0)
 end
  begin
     id 21 
     name lhand
     direction 1 -4.48973e-011 -1.31746e-026   
     length 1.17917   
     axis 8.4065e-015 90 90   XYZ
    dof rx rz
    limits (-90.0 90.0)
           (-45.0 45.0)
  end
  begin
     id 22 
     name lfingers
     direction 1 -4.49107e-011 -2.63492e-026   
     length 0.950679   
     axis 1.6813e-014 90 90   XYZ
    dof rx
    limits (0.0 90.0)
  end
  begin
     id 23
     name lthumb
     direction 0.707107 -6.35048e-011 0.707107   
     length 1.36499   
     axis -90 45 2.85299e-015   XYZ
    dof rx rz
    limits (-45.0 45.0)
           (-45.0 45.0)
  end
  begin
     id 24 
     name rclavicle
     direction -0.996699 0.0642895 -0.0495725   
     length 4.62611  
     axis 0 0 0   XYZ 
    dof ry rz
    limits (-10.0 20.0)
           (-20.0 0.0)
  end
  begin
     id 25 
     name rhumerus
     direction -1 -4.48919e-011 -2.41059e-027  
     length 5.4981   
     axis 180 30 90   XYZ
    dof rx ry rz
    limits (-90.0 60.0)
           (-90.0 90.0)
           (-90.0 90.0)
  end
  begin
     id 26 
     name rradius
     direction -0.999999 0.00118101 -0.000681858   
     length 3.48381   
     axis 180 30 90   XYZ
    dof rx
    limits (-10.0 170.0)
  end
  begin
     id 27 
     name rwrist
     direction -0.999999 0.000321823 -0.00132288   
     length 1.7419   
     axis 4.65056e-015 -90 -90   XYZ
    dof ry
    limits (-180.0 0.0)
  end
  begin
     id 28
     name rhand
     direction -1 -4.49022e-011 -1.31746e-026   
     length 1.34932   
     axis 8.4065e-015 -90 -90   XYZ
    dof rx rz
    limits (-90.0 90.0)
           (-45.0 45.0)
  end
  begin
     id 29
     name rfingers
     direction -1 -4.49178e-011 -2.63492e-026   
     length 1.08785   
     axis 1.6813e-014 -90 -90   XYZ
    dof rx
    limits (0.0 90.0)
  end
  begin
     id 30
     name rthumb
     direction -0.707107 -6.34713e-011 0.707107   
     length 1.56195   
     axis -90 -45 -2.85299e-015   XYZ
    dof rx rz
    limits (-45.0 45.0)
           (-45.0 45.0)
  end
:hierarchy
  begin
    root lhipjoint rhipjoint lowerback
    lhipjoint lfemur
    lfemur ltibia
    ltibia lfoot
    lfoot ltoes
    rhipjoint rfemur
    rfemur rtibia
    rtibia rfoot
    rfoot rtoes
    lowerback upperback
    upperback thorax
    thorax lowerneck lclavicle rclavicle
    lowerneck upperneck
    upperneck head
    lclavicle lhumerus
    lhumerus lradius
    lradius lwrist
    lwrist lhand lthumb
    lhand lfingers
    rclavicle rhumerus
    rhumerus rradius
    rradius rwrist
    rwrist rhand rthumb
    rhand rfingers
  end

#!OML:ASF X:\für Bonn\!DataBase\2005_08_10_Bjorn_Final\c3d\bjorn.ASF
:FULLY-SPECIFIED
:DEGREES
1
root 0.00735589 19.0707 1.39993 502.846 84.0696 -575.494
lowerback 0.128451 0.310174 4.80067
upperback 8.64385 0.420853 0.968786
thorax 9.07265 0.658784 -1.60127
lowerneck 0.356363 -3.87941 6.77029
upperneck 14.901 -4.29525 -6.61551
head 4.07009 -1.92679 -3.27686
rclavicle -4.37326e-015 -2.38542e-014
rhumerus -19.5519 -21.7761 -82.2829
rradius 22.4505
rwrist 4.92302
rhand -15.6797 8.05245
rfingers 7.12502
rthumb 10.5091 -21.6648
lclavicle -4.37326e-015 -2.38542e-014
lhumerus -30.901 -11.4616 92.6435
lradius 20.72
lwrist -31.148
lhand -6.84618 -6.03641
lfingers 7.12502
lthumb 19.0188 23.0537
rfemur -22.5388 -10.5423 14.3477
rtibia 34.237
rfoot -3.38902 13.0065
rtoes 2.92791
lfemur -5.56499 5.57576 -19.1757
ltibia 56.089
lfoot -4.38888 1.98538
ltoes -12.2642
2
root 0.0991898 19.0953 1.41372 503.049 84.1095 -575.41
lowerback 0.317896 0.435747 4.88205
upperback 8.66344 0.602773 0.943254
thorax 8.9971 0.755967 -1.66126
lowerneck 0.284461 -3.96257 6.66639
upperneck 14.8018 -4.43466 -6.46462
head 4.04994 -1.9971 -3.21589
rclavicle 3.26007e-014 1.59028e-015
rhumerus -19.1282 -20.9378 -82.6713
rradius 23.2527
rwrist 3.94002
rhand -15.7747 8.09715
rfingers 7.12502
rthumb 10.4175 -21.6248
lclavicle 3.26007e-014 1.59028e-015
lhumerus -31.2388 -12.2006 92.76
lradius 21.1272
lwrist -30.2619
lhand -7.16273 -6.36437
lfingers 7.12502
lthumb 18.7143 22.7554
rfemur -22.2193 -10.5393 14.4387
rtibia 34.0032
rfoot -3.6221 13.0442
rtoes 2.92523
lfemur -6.88919 6.13882 -19.3095
ltibia 55.7107
lfoot -5.4866 1.24695
ltoes -11.7233
3
root 0.189075 19.1145 1.42744 503.112 84.1389 -575.439
lowerback 0.537174 0.554048 4.93166
upperback 8.6988 0.778539 0.930841
thorax 8.92065 0.848076 -1.691
lowerneck 0.213508 -4.03449 6.39911
upperneck 14.7062 -4.56001 -6.24075
head 4.03816 -2.06521 -3.10557
rclavicle -1.59028e-015 4.77083e-015
rhumerus -18.7154 -20.0239 -83.0049
rradius 24.0659
rwrist 2.98354
rhand -15.9158 8.14104
rfingers 7.12502
rthumb 10.2814 -21.5877
lclavicle -1.59028e-015 4.77083e-015
lhumerus -31.5443 -12.7827 92.8539
lradius 21.5697
lwrist -29.6522
lhand -7.41002 -6.70482
lfingers 7.12502
lthumb 18.4764 22.4377
rfemur -21.926 -10.5123 14.5013
rtibia 33.8523
rfoot -3.86058 13.0684
rtoes 3.05598
lfemur -8.1476 6.71899 -19.4689
ltibia 55.2091
lfoot -6.62502 0.510882
ltoes -11.561
4
root 0.276401 19.1267 1.44148 503.298 84.1517 -575.355
lowerback 0.731352 0.675488 4.98705
upperback 8.7503 0.958375 0.899507
thorax 8.87843 0.944773 -1.74374
lowerneck 0.176214 -4.13176 6.18524
upperneck 14.5512 -4.71957 -6.04035
head 3.99922 -2.14909 -3.0102
rclavicle 2.46493e-014 1.27222e-014
rhumerus -18.2839 -19.1717 -83.3381
rradius 24.8494
rwrist 2.09226
rhand -16.0922 8.33825
rfingers 7.12502
rthumb 10.1112 -21.3988
lclavicle 2.46493e-014 1.27222e-014
lhumerus -31.7849 -13.3623 92.8934
lradius 22.0502
lwrist -29.1481
lhand -7.5372 -6.98879
lfingers 7.12502
lthumb 18.3541 22.1653
rfemur -21.7009 -10.504 14.57
rtibia 33.7999
rfoot -4.1762 13.0873
rtoes 2.95847
lfemur -9.38712 7.28752 -19.6563
ltibia 54.6078
lfoot -7.79623 -0.132789
ltoes -12.452
5
root 0.362243 19.1353 1.45611 503.199 84.1694 -575.538
lowerback 0.960913 0.780466 4.97469
upperback 8.81513 1.12078 0.887427
thorax 8.82656 1.02762 -1.74072
lowerneck 0.106179 -4.2093 5.86607
upperneck 14.4164 -4.85398 -5.79826
head 3.97791 -2.22424 -2.88578
rclavicle 2.78299e-014 2.70347e-014
rhumerus -17.8287 -18.2626 -83.625
rradius 25.611
rwrist 1.29244
rhand -16.2817 8.59571
rfingers 7.12502
rthumb 9.92836 -21.1502
lclavicle 2.78299e-014 2.70347e-014
lhumerus -31.9872 -13.843 92.9481
lradius 22.5438
lwrist -28.5817
lhand -7.78104 -7.28173
lfingers 7.12502
lthumb 18.1195 21.8943
rfemur -21.5146 -10.4732 14.6144
rtibia 33.8441
rfoot -4.51075 13.1256
rtoes 2.89429
lfemur -10.5584 7.86986 -19.8743
ltibia 53.9082
lfoot -8.99702 -0.616556
ltoes -13.7279
6
root 0.445148 19.1395 1.47019 502.81 84.1364 -576.024
lowerback 1.19588 0.874217 4.89635
upperback 8.87532 1.27151 0.85954
thorax 8.76351 1.10006 -1.71964
lowerneck 0.117118 -4.28758 5.55881
upperneck 14.1987 -4.98617 -5.57248
head 3.91811 -2.29853 -2.76485
rclavicle -5.1684e-015 -1.59028e-015
rhumerus -17.3893 -17.3813 -83.9009
rradius 26.3956
rwrist 0.554862
rhand -16.5315 8.87398
rfingers 7.12502
rthumb 9.68739 -20.8832
lclavicle -5.1684e-015 -1.59028e-015
lhumerus -32.1647 -14.3672 93.025
lradius 23.0303
lwrist -27.7863
lhand -8.11357 -7.57235
lfingers 7.12502
lthumb 17.7996 21.633
rfemur -21.3907 -10.439 14.5919
rtibia 33.9693
rfoot -4.86099 13.1423
rtoes 2.94612
lfemur -11.7212 8.41185 -20.1783
ltibia 53.1489
lfoot -10.1534 -0.872622
ltoes -15.0467
